<mxfile host="app.diagrams.net" modified="2023-12-15T23:58:51.483Z" agent="Mozilla/5.0 (Windows NT 10.0; Win64; x64) AppleWebKit/537.36 (KHTML, like Gecko) Chrome/119.0.0.0 Safari/537.36" etag="_XkUO1DDZstaVhoBqvOa" version="22.1.11" type="google">
  <diagram name="Page-1" id="S10wrMy5_md-1B03OGcD">
    <mxGraphModel grid="1" page="1" gridSize="10" guides="1" tooltips="1" connect="1" arrows="1" fold="1" pageScale="1" pageWidth="850" pageHeight="1100" math="0" shadow="0">
      <root>
        <mxCell id="0" />
        <mxCell id="1" parent="0" />
        <mxCell id="3oH9Zk8UoGxWcU1IKBXy-3" style="edgeStyle=orthogonalEdgeStyle;rounded=0;orthogonalLoop=1;jettySize=auto;html=1;exitX=0;exitY=0.75;exitDx=0;exitDy=0;entryX=-0.017;entryY=0.133;entryDx=0;entryDy=0;entryPerimeter=0;" edge="1" parent="1" source="3oH9Zk8UoGxWcU1IKBXy-1" target="3oH9Zk8UoGxWcU1IKBXy-2">
          <mxGeometry relative="1" as="geometry">
            <Array as="points">
              <mxPoint x="425" y="95" />
              <mxPoint x="425" y="90" />
              <mxPoint x="260" y="90" />
              <mxPoint x="260" y="730" />
              <mxPoint x="365" y="730" />
              <mxPoint x="365" y="728" />
              <mxPoint x="378" y="728" />
            </Array>
          </mxGeometry>
        </mxCell>
        <mxCell id="3oH9Zk8UoGxWcU1IKBXy-4" value="Push Notifications Request" style="edgeLabel;html=1;align=center;verticalAlign=middle;resizable=0;points=[];" vertex="1" connectable="0" parent="3oH9Zk8UoGxWcU1IKBXy-3">
          <mxGeometry x="-0.1556" y="-2" relative="1" as="geometry">
            <mxPoint as="offset" />
          </mxGeometry>
        </mxCell>
        <mxCell id="3oH9Zk8UoGxWcU1IKBXy-5" style="edgeStyle=orthogonalEdgeStyle;rounded=0;orthogonalLoop=1;jettySize=auto;html=1;exitX=1;exitY=0.75;exitDx=0;exitDy=0;entryX=1;entryY=0;entryDx=0;entryDy=0;" edge="1" parent="1" source="3oH9Zk8UoGxWcU1IKBXy-1" target="3oH9Zk8UoGxWcU1IKBXy-2">
          <mxGeometry relative="1" as="geometry">
            <mxPoint x="694.96" y="130" as="sourcePoint" />
            <mxPoint x="697" y="746" as="targetPoint" />
            <Array as="points">
              <mxPoint x="447" y="95" />
              <mxPoint x="447" y="90" />
              <mxPoint x="600" y="90" />
              <mxPoint x="600" y="730" />
            </Array>
          </mxGeometry>
        </mxCell>
        <mxCell id="3oH9Zk8UoGxWcU1IKBXy-6" value="&quot;Similar Tastes&quot; Tab" style="edgeLabel;html=1;align=center;verticalAlign=middle;resizable=0;points=[];" vertex="1" connectable="0" parent="3oH9Zk8UoGxWcU1IKBXy-5">
          <mxGeometry x="-0.06" relative="1" as="geometry">
            <mxPoint as="offset" />
          </mxGeometry>
        </mxCell>
        <mxCell id="3oH9Zk8UoGxWcU1IKBXy-13" style="edgeStyle=orthogonalEdgeStyle;rounded=0;orthogonalLoop=1;jettySize=auto;html=1;exitX=0.75;exitY=1;exitDx=0;exitDy=0;entryX=0.5;entryY=0;entryDx=0;entryDy=0;" edge="1" parent="1" source="3oH9Zk8UoGxWcU1IKBXy-1" target="3oH9Zk8UoGxWcU1IKBXy-2">
          <mxGeometry relative="1" as="geometry">
            <Array as="points">
              <mxPoint x="420" y="110" />
              <mxPoint x="420" y="720" />
              <mxPoint x="440" y="720" />
            </Array>
          </mxGeometry>
        </mxCell>
        <mxCell id="3oH9Zk8UoGxWcU1IKBXy-14" value="Activity Feed" style="edgeLabel;html=1;align=center;verticalAlign=middle;resizable=0;points=[];" vertex="1" connectable="0" parent="3oH9Zk8UoGxWcU1IKBXy-13">
          <mxGeometry x="-0.177" y="3" relative="1" as="geometry">
            <mxPoint as="offset" />
          </mxGeometry>
        </mxCell>
        <mxCell id="3oH9Zk8UoGxWcU1IKBXy-1" value="Spotify+" style="rounded=1;whiteSpace=wrap;html=1;" vertex="1" parent="1">
          <mxGeometry x="365" y="50" width="120" height="60" as="geometry" />
        </mxCell>
        <mxCell id="3oH9Zk8UoGxWcU1IKBXy-9" style="edgeStyle=orthogonalEdgeStyle;rounded=0;orthogonalLoop=1;jettySize=auto;html=1;exitX=0;exitY=0.75;exitDx=0;exitDy=0;entryX=0.008;entryY=0.117;entryDx=0;entryDy=0;entryPerimeter=0;" edge="1" parent="1" source="3oH9Zk8UoGxWcU1IKBXy-2" target="3oH9Zk8UoGxWcU1IKBXy-1">
          <mxGeometry relative="1" as="geometry">
            <mxPoint x="360" y="70" as="targetPoint" />
            <Array as="points">
              <mxPoint x="80" y="775" />
              <mxPoint x="80" y="50" />
              <mxPoint x="366" y="50" />
            </Array>
          </mxGeometry>
        </mxCell>
        <mxCell id="3oH9Zk8UoGxWcU1IKBXy-10" value="Text" style="edgeLabel;html=1;align=center;verticalAlign=middle;resizable=0;points=[];" vertex="1" connectable="0" parent="3oH9Zk8UoGxWcU1IKBXy-9">
          <mxGeometry x="0.0264" y="3" relative="1" as="geometry">
            <mxPoint as="offset" />
          </mxGeometry>
        </mxCell>
        <mxCell id="3oH9Zk8UoGxWcU1IKBXy-11" value="Music Tag Request" style="edgeLabel;html=1;align=center;verticalAlign=middle;resizable=0;points=[];" vertex="1" connectable="0" parent="3oH9Zk8UoGxWcU1IKBXy-9">
          <mxGeometry x="0.0286" y="2" relative="1" as="geometry">
            <mxPoint as="offset" />
          </mxGeometry>
        </mxCell>
        <mxCell id="3oH9Zk8UoGxWcU1IKBXy-12" style="edgeStyle=orthogonalEdgeStyle;rounded=0;orthogonalLoop=1;jettySize=auto;html=1;exitX=1;exitY=0.25;exitDx=0;exitDy=0;entryX=1;entryY=0.5;entryDx=0;entryDy=0;" edge="1" parent="1" source="3oH9Zk8UoGxWcU1IKBXy-2" target="3oH9Zk8UoGxWcU1IKBXy-1">
          <mxGeometry relative="1" as="geometry">
            <Array as="points">
              <mxPoint x="730" y="745" />
              <mxPoint x="730" y="80" />
            </Array>
          </mxGeometry>
        </mxCell>
        <mxCell id="3oH9Zk8UoGxWcU1IKBXy-24" value="Collaborated Queue Request" style="edgeLabel;html=1;align=center;verticalAlign=middle;resizable=0;points=[];" vertex="1" connectable="0" parent="3oH9Zk8UoGxWcU1IKBXy-12">
          <mxGeometry x="0.0061" relative="1" as="geometry">
            <mxPoint as="offset" />
          </mxGeometry>
        </mxCell>
        <mxCell id="3oH9Zk8UoGxWcU1IKBXy-17" style="edgeStyle=orthogonalEdgeStyle;rounded=0;orthogonalLoop=1;jettySize=auto;html=1;exitX=0.25;exitY=0;exitDx=0;exitDy=0;entryX=-0.008;entryY=0.867;entryDx=0;entryDy=0;entryPerimeter=0;" edge="1" parent="1" source="3oH9Zk8UoGxWcU1IKBXy-2" target="3oH9Zk8UoGxWcU1IKBXy-1">
          <mxGeometry relative="1" as="geometry">
            <Array as="points">
              <mxPoint x="410" y="720" />
              <mxPoint x="330" y="720" />
              <mxPoint x="330" y="103" />
            </Array>
            <mxPoint x="390" y="150" as="targetPoint" />
          </mxGeometry>
        </mxCell>
        <mxCell id="3oH9Zk8UoGxWcU1IKBXy-18" value="Message User Request" style="edgeLabel;html=1;align=center;verticalAlign=middle;resizable=0;points=[];" vertex="1" connectable="0" parent="3oH9Zk8UoGxWcU1IKBXy-17">
          <mxGeometry x="-0.2131" y="1" relative="1" as="geometry">
            <mxPoint as="offset" />
          </mxGeometry>
        </mxCell>
        <mxCell id="3oH9Zk8UoGxWcU1IKBXy-20" style="edgeStyle=orthogonalEdgeStyle;rounded=0;orthogonalLoop=1;jettySize=auto;html=1;exitX=0;exitY=0.25;exitDx=0;exitDy=0;" edge="1" parent="1" source="3oH9Zk8UoGxWcU1IKBXy-2">
          <mxGeometry relative="1" as="geometry">
            <Array as="points">
              <mxPoint x="180" y="745" />
              <mxPoint x="180" y="70" />
              <mxPoint x="365" y="70" />
            </Array>
            <mxPoint x="365" y="70" as="targetPoint" />
          </mxGeometry>
        </mxCell>
        <mxCell id="3oH9Zk8UoGxWcU1IKBXy-22" value="Music Modification Request" style="edgeLabel;html=1;align=center;verticalAlign=middle;resizable=0;points=[];" vertex="1" connectable="0" parent="3oH9Zk8UoGxWcU1IKBXy-20">
          <mxGeometry x="0.0455" y="2" relative="1" as="geometry">
            <mxPoint y="78" as="offset" />
          </mxGeometry>
        </mxCell>
        <mxCell id="3oH9Zk8UoGxWcU1IKBXy-25" style="edgeStyle=orthogonalEdgeStyle;rounded=0;orthogonalLoop=1;jettySize=auto;html=1;exitX=1;exitY=0.75;exitDx=0;exitDy=0;entryX=1;entryY=0.25;entryDx=0;entryDy=0;" edge="1" parent="1" source="3oH9Zk8UoGxWcU1IKBXy-2" target="3oH9Zk8UoGxWcU1IKBXy-1">
          <mxGeometry relative="1" as="geometry">
            <Array as="points">
              <mxPoint x="920" y="765" />
              <mxPoint x="920" y="65" />
            </Array>
          </mxGeometry>
        </mxCell>
        <mxCell id="3oH9Zk8UoGxWcU1IKBXy-26" value="Playlist Setup Request" style="edgeLabel;html=1;align=center;verticalAlign=middle;resizable=0;points=[];" vertex="1" connectable="0" parent="3oH9Zk8UoGxWcU1IKBXy-25">
          <mxGeometry x="0.0191" y="2" relative="1" as="geometry">
            <mxPoint as="offset" />
          </mxGeometry>
        </mxCell>
        <mxCell id="3oH9Zk8UoGxWcU1IKBXy-30" style="edgeStyle=orthogonalEdgeStyle;rounded=0;orthogonalLoop=1;jettySize=auto;html=1;exitX=0;exitY=1;exitDx=0;exitDy=0;entryX=0.25;entryY=0;entryDx=0;entryDy=0;" edge="1" parent="1" source="3oH9Zk8UoGxWcU1IKBXy-2" target="3oH9Zk8UoGxWcU1IKBXy-1">
          <mxGeometry relative="1" as="geometry">
            <Array as="points">
              <mxPoint x="-120" y="790" />
              <mxPoint x="-120" y="30" />
              <mxPoint x="395" y="30" />
            </Array>
          </mxGeometry>
        </mxCell>
        <mxCell id="3oH9Zk8UoGxWcU1IKBXy-32" value="Search Music Request" style="edgeLabel;html=1;align=center;verticalAlign=middle;resizable=0;points=[];" vertex="1" connectable="0" parent="3oH9Zk8UoGxWcU1IKBXy-30">
          <mxGeometry x="0.0133" y="3" relative="1" as="geometry">
            <mxPoint as="offset" />
          </mxGeometry>
        </mxCell>
        <mxCell id="3oH9Zk8UoGxWcU1IKBXy-2" value="Spotify+ User" style="rounded=0;whiteSpace=wrap;html=1;" vertex="1" parent="1">
          <mxGeometry x="380" y="730" width="120" height="60" as="geometry" />
        </mxCell>
        <mxCell id="3oH9Zk8UoGxWcU1IKBXy-28" style="edgeStyle=orthogonalEdgeStyle;rounded=0;orthogonalLoop=1;jettySize=auto;html=1;exitX=0.5;exitY=1;exitDx=0;exitDy=0;entryX=0.75;entryY=0;entryDx=0;entryDy=0;" edge="1" parent="1" source="3oH9Zk8UoGxWcU1IKBXy-2" target="3oH9Zk8UoGxWcU1IKBXy-1">
          <mxGeometry relative="1" as="geometry">
            <Array as="points">
              <mxPoint x="425" y="800" />
              <mxPoint x="1090" y="800" />
              <mxPoint x="1090" y="38" />
              <mxPoint x="455" y="38" />
            </Array>
          </mxGeometry>
        </mxCell>
        <mxCell id="3oH9Zk8UoGxWcU1IKBXy-29" value="Queue Song Request" style="edgeLabel;html=1;align=center;verticalAlign=middle;resizable=0;points=[];" vertex="1" connectable="0" parent="3oH9Zk8UoGxWcU1IKBXy-28">
          <mxGeometry x="0.0325" y="2" relative="1" as="geometry">
            <mxPoint as="offset" />
          </mxGeometry>
        </mxCell>
        <mxCell id="3oH9Zk8UoGxWcU1IKBXy-33" style="edgeStyle=orthogonalEdgeStyle;rounded=0;orthogonalLoop=1;jettySize=auto;html=1;exitX=0.75;exitY=0;exitDx=0;exitDy=0;entryX=0.875;entryY=1.033;entryDx=0;entryDy=0;entryPerimeter=0;" edge="1" parent="1" source="3oH9Zk8UoGxWcU1IKBXy-2" target="3oH9Zk8UoGxWcU1IKBXy-1">
          <mxGeometry relative="1" as="geometry">
            <Array as="points">
              <mxPoint x="490" y="730" />
              <mxPoint x="490" y="112" />
            </Array>
          </mxGeometry>
        </mxCell>
        <mxCell id="3oH9Zk8UoGxWcU1IKBXy-35" value="Share Music Request" style="edgeLabel;html=1;align=center;verticalAlign=middle;resizable=0;points=[];" vertex="1" connectable="0" parent="3oH9Zk8UoGxWcU1IKBXy-33">
          <mxGeometry x="0.3527" y="1" relative="1" as="geometry">
            <mxPoint as="offset" />
          </mxGeometry>
        </mxCell>
        <mxCell id="LanPgRm3flNNAAaXx24Z-2" value="Timeline Post Request" style="edgeLabel;html=1;align=center;verticalAlign=middle;resizable=0;points=[];" connectable="0" vertex="1" parent="3oH9Zk8UoGxWcU1IKBXy-33">
          <mxGeometry x="-0.4468" relative="1" as="geometry">
            <mxPoint as="offset" />
          </mxGeometry>
        </mxCell>
      </root>
    </mxGraphModel>
  </diagram>
</mxfile>
